<mxfile host="app.diagrams.net" modified="2024-04-03T19:57:52.955Z" agent="Mozilla/5.0 (Windows NT 10.0; Win64; x64) AppleWebKit/537.36 (KHTML, like Gecko) Chrome/123.0.0.0 Safari/537.36" etag="axucLyLHug9Pt5PohLH9" version="24.2.2" type="google" pages="2">
  <diagram name="TT" id="S1yckZTztsz0f1deBKPf">
    <mxGraphModel grid="1" page="1" gridSize="10" guides="1" tooltips="1" connect="1" arrows="1" fold="1" pageScale="1" pageWidth="827" pageHeight="1169" math="0" shadow="0">
      <root>
        <mxCell id="0" />
        <mxCell id="1" parent="0" />
        <mxCell id="h73j9yxgBd2oVGN-S1us-82" style="edgeStyle=orthogonalEdgeStyle;rounded=0;orthogonalLoop=1;jettySize=auto;html=1;endArrow=none;endFill=0;" edge="1" parent="1" source="h73j9yxgBd2oVGN-S1us-2" target="h73j9yxgBd2oVGN-S1us-28">
          <mxGeometry relative="1" as="geometry" />
        </mxCell>
        <mxCell id="h73j9yxgBd2oVGN-S1us-2" value="Restaurante" style="swimlane;fontStyle=1;childLayout=stackLayout;horizontal=1;startSize=40;fillColor=#008a00;horizontalStack=0;resizeParent=1;resizeParentMax=0;resizeLast=0;collapsible=1;marginBottom=0;whiteSpace=wrap;html=1;fontColor=#ffffff;strokeColor=#005700;swimlaneFillColor=#00CC00;fontSize=18;" vertex="1" parent="1">
          <mxGeometry x="-40" y="-860" width="220" height="220" as="geometry" />
        </mxCell>
        <mxCell id="h73j9yxgBd2oVGN-S1us-41" value="&lt;font color=&quot;#ffffff&quot; style=&quot;font-size: 16px;&quot;&gt;&lt;b&gt;id (PK) : int&lt;/b&gt;&lt;/font&gt;" style="text;strokeColor=none;fillColor=none;align=left;verticalAlign=top;spacingLeft=4;spacingRight=4;overflow=hidden;rotatable=0;points=[[0,0.5],[1,0.5]];portConstraint=eastwest;whiteSpace=wrap;html=1;fontStyle=0;fontSize=16;" vertex="1" parent="h73j9yxgBd2oVGN-S1us-2">
          <mxGeometry y="40" width="220" height="30" as="geometry" />
        </mxCell>
        <mxCell id="h73j9yxgBd2oVGN-S1us-3" value="&lt;font color=&quot;#ffffff&quot; style=&quot;font-size: 16px;&quot;&gt;nombre : char(50)&lt;/font&gt;" style="text;strokeColor=none;fillColor=none;align=left;verticalAlign=top;spacingLeft=4;spacingRight=4;overflow=hidden;rotatable=0;points=[[0,0.5],[1,0.5]];portConstraint=eastwest;whiteSpace=wrap;html=1;fontStyle=0;fontSize=16;" vertex="1" parent="h73j9yxgBd2oVGN-S1us-2">
          <mxGeometry y="70" width="220" height="30" as="geometry" />
        </mxCell>
        <mxCell id="h73j9yxgBd2oVGN-S1us-7" value="&lt;font color=&quot;#ffffff&quot; style=&quot;font-size: 16px;&quot;&gt;foto : varchar(21000)&lt;/font&gt;" style="text;strokeColor=none;fillColor=none;align=left;verticalAlign=top;spacingLeft=4;spacingRight=4;overflow=hidden;rotatable=0;points=[[0,0.5],[1,0.5]];portConstraint=eastwest;whiteSpace=wrap;html=1;fontStyle=0;fontSize=16;" vertex="1" parent="h73j9yxgBd2oVGN-S1us-2">
          <mxGeometry y="100" width="220" height="30" as="geometry" />
        </mxCell>
        <mxCell id="h73j9yxgBd2oVGN-S1us-8" value="&lt;font color=&quot;#ffffff&quot; style=&quot;font-size: 16px;&quot;&gt;direccion : char(255)&lt;/font&gt;" style="text;strokeColor=none;fillColor=none;align=left;verticalAlign=top;spacingLeft=4;spacingRight=4;overflow=hidden;rotatable=0;points=[[0,0.5],[1,0.5]];portConstraint=eastwest;whiteSpace=wrap;html=1;fontStyle=0;fontSize=16;" vertex="1" parent="h73j9yxgBd2oVGN-S1us-2">
          <mxGeometry y="130" width="220" height="30" as="geometry" />
        </mxCell>
        <mxCell id="h73j9yxgBd2oVGN-S1us-9" value="&lt;font color=&quot;#ffffff&quot;&gt;horarioAtencion : char(255)&lt;/font&gt;" style="text;strokeColor=none;fillColor=none;align=left;verticalAlign=top;spacingLeft=4;spacingRight=4;overflow=hidden;rotatable=0;points=[[0,0.5],[1,0.5]];portConstraint=eastwest;whiteSpace=wrap;html=1;fontStyle=0;fontSize=16;" vertex="1" parent="h73j9yxgBd2oVGN-S1us-2">
          <mxGeometry y="160" width="220" height="30" as="geometry" />
        </mxCell>
        <mxCell id="h73j9yxgBd2oVGN-S1us-10" value="&lt;font color=&quot;#ffffff&quot;&gt;calificacion : tinyint(5)&lt;/font&gt;" style="text;strokeColor=none;fillColor=none;align=left;verticalAlign=top;spacingLeft=4;spacingRight=4;overflow=hidden;rotatable=0;points=[[0,0.5],[1,0.5]];portConstraint=eastwest;whiteSpace=wrap;html=1;fontStyle=0;fontSize=16;" vertex="1" parent="h73j9yxgBd2oVGN-S1us-2">
          <mxGeometry y="190" width="220" height="30" as="geometry" />
        </mxCell>
        <mxCell id="h73j9yxgBd2oVGN-S1us-96" style="edgeStyle=orthogonalEdgeStyle;rounded=0;orthogonalLoop=1;jettySize=auto;html=1;entryX=0;entryY=0.5;entryDx=0;entryDy=0;endArrow=none;endFill=0;" edge="1" parent="1" source="h73j9yxgBd2oVGN-S1us-11" target="h73j9yxgBd2oVGN-S1us-94">
          <mxGeometry relative="1" as="geometry" />
        </mxCell>
        <mxCell id="h73j9yxgBd2oVGN-S1us-107" style="edgeStyle=orthogonalEdgeStyle;rounded=0;orthogonalLoop=1;jettySize=auto;html=1;entryX=0.5;entryY=0;entryDx=0;entryDy=0;endArrow=none;endFill=0;" edge="1" parent="1" source="h73j9yxgBd2oVGN-S1us-11" target="h73j9yxgBd2oVGN-S1us-101">
          <mxGeometry relative="1" as="geometry" />
        </mxCell>
        <mxCell id="h73j9yxgBd2oVGN-S1us-11" value="Platos" style="swimlane;fontStyle=1;childLayout=stackLayout;horizontal=1;startSize=40;fillColor=#008a00;horizontalStack=0;resizeParent=1;resizeParentMax=0;resizeLast=0;collapsible=1;marginBottom=0;whiteSpace=wrap;html=1;fontColor=#ffffff;strokeColor=#005700;swimlaneFillColor=#00CC00;fontSize=18;" vertex="1" parent="1">
          <mxGeometry x="-420" y="-475" width="220" height="220" as="geometry" />
        </mxCell>
        <mxCell id="h73j9yxgBd2oVGN-S1us-38" value="&lt;font color=&quot;#ffffff&quot; style=&quot;font-size: 16px;&quot;&gt;&lt;b&gt;id (PK) : int&lt;/b&gt;&lt;/font&gt;" style="text;strokeColor=none;fillColor=none;align=left;verticalAlign=top;spacingLeft=4;spacingRight=4;overflow=hidden;rotatable=0;points=[[0,0.5],[1,0.5]];portConstraint=eastwest;whiteSpace=wrap;html=1;fontStyle=0;fontSize=16;" vertex="1" parent="h73j9yxgBd2oVGN-S1us-11">
          <mxGeometry y="40" width="220" height="30" as="geometry" />
        </mxCell>
        <mxCell id="h73j9yxgBd2oVGN-S1us-12" value="&lt;font color=&quot;#ffffff&quot; style=&quot;font-size: 16px;&quot;&gt;nombre : char(50)&lt;/font&gt;" style="text;strokeColor=none;fillColor=none;align=left;verticalAlign=top;spacingLeft=4;spacingRight=4;overflow=hidden;rotatable=0;points=[[0,0.5],[1,0.5]];portConstraint=eastwest;whiteSpace=wrap;html=1;fontStyle=0;fontSize=16;" vertex="1" parent="h73j9yxgBd2oVGN-S1us-11">
          <mxGeometry y="70" width="220" height="30" as="geometry" />
        </mxCell>
        <mxCell id="h73j9yxgBd2oVGN-S1us-14" value="&lt;font color=&quot;#ffffff&quot; style=&quot;font-size: 16px;&quot;&gt;descripcion : char(255)&lt;/font&gt;" style="text;strokeColor=none;fillColor=none;align=left;verticalAlign=top;spacingLeft=4;spacingRight=4;overflow=hidden;rotatable=0;points=[[0,0.5],[1,0.5]];portConstraint=eastwest;whiteSpace=wrap;html=1;fontStyle=0;fontSize=16;" vertex="1" parent="h73j9yxgBd2oVGN-S1us-11">
          <mxGeometry y="100" width="220" height="30" as="geometry" />
        </mxCell>
        <mxCell id="h73j9yxgBd2oVGN-S1us-13" value="&lt;font color=&quot;#ffffff&quot; style=&quot;font-size: 16px;&quot;&gt;foto : varchar(21000&lt;/font&gt;&lt;font color=&quot;#ffffff&quot; style=&quot;font-size: 16px;&quot;&gt;)&lt;/font&gt;" style="text;strokeColor=none;fillColor=none;align=left;verticalAlign=top;spacingLeft=4;spacingRight=4;overflow=hidden;rotatable=0;points=[[0,0.5],[1,0.5]];portConstraint=eastwest;whiteSpace=wrap;html=1;fontStyle=0;fontSize=16;" vertex="1" parent="h73j9yxgBd2oVGN-S1us-11">
          <mxGeometry y="130" width="220" height="30" as="geometry" />
        </mxCell>
        <mxCell id="h73j9yxgBd2oVGN-S1us-16" value="&lt;font color=&quot;#ffffff&quot;&gt;precio : float(7,2)&lt;/font&gt;" style="text;strokeColor=none;fillColor=none;align=left;verticalAlign=top;spacingLeft=4;spacingRight=4;overflow=hidden;rotatable=0;points=[[0,0.5],[1,0.5]];portConstraint=eastwest;whiteSpace=wrap;html=1;fontStyle=0;fontSize=16;" vertex="1" parent="h73j9yxgBd2oVGN-S1us-11">
          <mxGeometry y="160" width="220" height="30" as="geometry" />
        </mxCell>
        <mxCell id="h73j9yxgBd2oVGN-S1us-87" value="&lt;font color=&quot;#ffffff&quot; style=&quot;font-size: 16px;&quot;&gt;&lt;b&gt;categoriaId (FK) : int&lt;/b&gt;&lt;/font&gt;" style="text;strokeColor=none;fillColor=none;align=left;verticalAlign=top;spacingLeft=4;spacingRight=4;overflow=hidden;rotatable=0;points=[[0,0.5],[1,0.5]];portConstraint=eastwest;whiteSpace=wrap;html=1;fontStyle=0;fontSize=16;" vertex="1" parent="h73j9yxgBd2oVGN-S1us-11">
          <mxGeometry y="190" width="220" height="30" as="geometry" />
        </mxCell>
        <mxCell id="h73j9yxgBd2oVGN-S1us-85" style="edgeStyle=orthogonalEdgeStyle;rounded=0;orthogonalLoop=1;jettySize=auto;html=1;entryX=0;entryY=0.5;entryDx=0;entryDy=0;endArrow=none;endFill=0;" edge="1" parent="1" source="h73j9yxgBd2oVGN-S1us-17" target="h73j9yxgBd2oVGN-S1us-12">
          <mxGeometry relative="1" as="geometry" />
        </mxCell>
        <mxCell id="h73j9yxgBd2oVGN-S1us-17" value="Categoria" style="swimlane;fontStyle=1;childLayout=stackLayout;horizontal=1;startSize=40;fillColor=#008a00;horizontalStack=0;resizeParent=1;resizeParentMax=0;resizeLast=0;collapsible=1;marginBottom=0;whiteSpace=wrap;html=1;fontColor=#ffffff;strokeColor=#005700;swimlaneFillColor=#00CC00;fontSize=18;" vertex="1" parent="1">
          <mxGeometry x="-760" y="-455" width="220" height="130" as="geometry" />
        </mxCell>
        <mxCell id="h73j9yxgBd2oVGN-S1us-39" value="&lt;font color=&quot;#ffffff&quot; style=&quot;font-size: 16px;&quot;&gt;&lt;b&gt;id (PK) : int&lt;/b&gt;&lt;/font&gt;" style="text;strokeColor=none;fillColor=none;align=left;verticalAlign=top;spacingLeft=4;spacingRight=4;overflow=hidden;rotatable=0;points=[[0,0.5],[1,0.5]];portConstraint=eastwest;whiteSpace=wrap;html=1;fontStyle=0;fontSize=16;" vertex="1" parent="h73j9yxgBd2oVGN-S1us-17">
          <mxGeometry y="40" width="220" height="30" as="geometry" />
        </mxCell>
        <mxCell id="h73j9yxgBd2oVGN-S1us-18" value="&lt;font color=&quot;#ffffff&quot; style=&quot;font-size: 16px;&quot;&gt;nombre : char(50)&lt;/font&gt;" style="text;strokeColor=none;fillColor=none;align=left;verticalAlign=top;spacingLeft=4;spacingRight=4;overflow=hidden;rotatable=0;points=[[0,0.5],[1,0.5]];portConstraint=eastwest;whiteSpace=wrap;html=1;fontStyle=0;fontSize=16;" vertex="1" parent="h73j9yxgBd2oVGN-S1us-17">
          <mxGeometry y="70" width="220" height="30" as="geometry" />
        </mxCell>
        <mxCell id="h73j9yxgBd2oVGN-S1us-19" value="&lt;font color=&quot;#ffffff&quot; style=&quot;font-size: 16px;&quot;&gt;descripcion : char(255)&lt;/font&gt;" style="text;strokeColor=none;fillColor=none;align=left;verticalAlign=top;spacingLeft=4;spacingRight=4;overflow=hidden;rotatable=0;points=[[0,0.5],[1,0.5]];portConstraint=eastwest;whiteSpace=wrap;html=1;fontStyle=0;fontSize=16;" vertex="1" parent="h73j9yxgBd2oVGN-S1us-17">
          <mxGeometry y="100" width="220" height="30" as="geometry" />
        </mxCell>
        <mxCell id="h73j9yxgBd2oVGN-S1us-106" style="edgeStyle=orthogonalEdgeStyle;rounded=0;orthogonalLoop=1;jettySize=auto;html=1;entryX=0.498;entryY=1.092;entryDx=0;entryDy=0;entryPerimeter=0;endArrow=none;endFill=0;" edge="1" parent="1" source="h73j9yxgBd2oVGN-S1us-23" target="h73j9yxgBd2oVGN-S1us-104">
          <mxGeometry relative="1" as="geometry">
            <Array as="points">
              <mxPoint x="-310" y="-18" />
              <mxPoint x="-310" y="-18" />
            </Array>
          </mxGeometry>
        </mxCell>
        <mxCell id="h73j9yxgBd2oVGN-S1us-23" value="Ingredientes" style="swimlane;fontStyle=1;childLayout=stackLayout;horizontal=1;startSize=40;fillColor=#008a00;horizontalStack=0;resizeParent=1;resizeParentMax=0;resizeLast=0;collapsible=1;marginBottom=0;whiteSpace=wrap;html=1;fontColor=#ffffff;strokeColor=#005700;swimlaneFillColor=#00CC00;fontSize=18;" vertex="1" parent="1">
          <mxGeometry x="-420" y="51" width="220" height="130" as="geometry" />
        </mxCell>
        <mxCell id="h73j9yxgBd2oVGN-S1us-40" value="&lt;font color=&quot;#ffffff&quot; style=&quot;font-size: 16px;&quot;&gt;&lt;b&gt;id (PK) : int&lt;/b&gt;&lt;/font&gt;" style="text;strokeColor=none;fillColor=none;align=left;verticalAlign=top;spacingLeft=4;spacingRight=4;overflow=hidden;rotatable=0;points=[[0,0.5],[1,0.5]];portConstraint=eastwest;whiteSpace=wrap;html=1;fontStyle=0;fontSize=16;" vertex="1" parent="h73j9yxgBd2oVGN-S1us-23">
          <mxGeometry y="40" width="220" height="30" as="geometry" />
        </mxCell>
        <mxCell id="h73j9yxgBd2oVGN-S1us-24" value="&lt;font color=&quot;#ffffff&quot;&gt;nombre : char(50)&lt;/font&gt;" style="text;strokeColor=none;fillColor=none;align=left;verticalAlign=top;spacingLeft=4;spacingRight=4;overflow=hidden;rotatable=0;points=[[0,0.5],[1,0.5]];portConstraint=eastwest;whiteSpace=wrap;html=1;fontStyle=0;fontSize=16;" vertex="1" parent="h73j9yxgBd2oVGN-S1us-23">
          <mxGeometry y="70" width="220" height="30" as="geometry" />
        </mxCell>
        <mxCell id="h73j9yxgBd2oVGN-S1us-27" value="&lt;font color=&quot;#ffffff&quot;&gt;detalle : char (255)&lt;/font&gt;" style="text;strokeColor=none;fillColor=none;align=left;verticalAlign=top;spacingLeft=4;spacingRight=4;overflow=hidden;rotatable=0;points=[[0,0.5],[1,0.5]];portConstraint=eastwest;whiteSpace=wrap;html=1;fontStyle=0;fontSize=16;" vertex="1" parent="h73j9yxgBd2oVGN-S1us-23">
          <mxGeometry y="100" width="220" height="30" as="geometry" />
        </mxCell>
        <mxCell id="h73j9yxgBd2oVGN-S1us-76" style="edgeStyle=orthogonalEdgeStyle;rounded=0;orthogonalLoop=1;jettySize=auto;html=1;entryX=0;entryY=0.5;entryDx=0;entryDy=0;endArrow=none;endFill=0;" edge="1" parent="1" source="h73j9yxgBd2oVGN-S1us-28" target="h73j9yxgBd2oVGN-S1us-53">
          <mxGeometry relative="1" as="geometry">
            <Array as="points">
              <mxPoint x="470" y="-405" />
              <mxPoint x="470" y="-405" />
            </Array>
          </mxGeometry>
        </mxCell>
        <mxCell id="h73j9yxgBd2oVGN-S1us-28" value="Pedidos" style="swimlane;fontStyle=1;childLayout=stackLayout;horizontal=1;startSize=40;fillColor=#008a00;horizontalStack=0;resizeParent=1;resizeParentMax=0;resizeLast=0;collapsible=1;marginBottom=0;whiteSpace=wrap;html=1;fontColor=#ffffff;strokeColor=#005700;swimlaneFillColor=#00CC00;fontSize=18;" vertex="1" parent="1">
          <mxGeometry x="220" y="-580" width="220" height="400" as="geometry" />
        </mxCell>
        <mxCell id="h73j9yxgBd2oVGN-S1us-42" value="&lt;font color=&quot;#ffffff&quot; style=&quot;font-size: 16px;&quot;&gt;&lt;b&gt;id (PK) : int&lt;/b&gt;&lt;/font&gt;" style="text;strokeColor=none;fillColor=none;align=left;verticalAlign=top;spacingLeft=4;spacingRight=4;overflow=hidden;rotatable=0;points=[[0,0.5],[1,0.5]];portConstraint=eastwest;whiteSpace=wrap;html=1;fontStyle=0;fontSize=16;" vertex="1" parent="h73j9yxgBd2oVGN-S1us-28">
          <mxGeometry y="40" width="220" height="30" as="geometry" />
        </mxCell>
        <mxCell id="h73j9yxgBd2oVGN-S1us-29" value="&lt;font color=&quot;#ffffff&quot; style=&quot;font-size: 16px;&quot;&gt;fechaRealizacion : date&lt;/font&gt;" style="text;strokeColor=none;fillColor=none;align=left;verticalAlign=top;spacingLeft=4;spacingRight=4;overflow=hidden;rotatable=0;points=[[0,0.5],[1,0.5]];portConstraint=eastwest;whiteSpace=wrap;html=1;fontStyle=0;fontSize=16;" vertex="1" parent="h73j9yxgBd2oVGN-S1us-28">
          <mxGeometry y="70" width="220" height="30" as="geometry" />
        </mxCell>
        <mxCell id="h73j9yxgBd2oVGN-S1us-33" value="&lt;font color=&quot;#ffffff&quot; style=&quot;font-size: 16px;&quot;&gt;horaRealizacion : time&amp;nbsp;&lt;/font&gt;" style="text;strokeColor=none;fillColor=none;align=left;verticalAlign=top;spacingLeft=4;spacingRight=4;overflow=hidden;rotatable=0;points=[[0,0.5],[1,0.5]];portConstraint=eastwest;whiteSpace=wrap;html=1;fontStyle=0;fontSize=16;" vertex="1" parent="h73j9yxgBd2oVGN-S1us-28">
          <mxGeometry y="100" width="220" height="30" as="geometry" />
        </mxCell>
        <mxCell id="h73j9yxgBd2oVGN-S1us-30" value="&lt;font color=&quot;#ffffff&quot; style=&quot;font-size: 16px;&quot;&gt;&lt;b&gt;platos : relacion&lt;/b&gt;&lt;/font&gt;" style="text;strokeColor=none;fillColor=none;align=left;verticalAlign=top;spacingLeft=4;spacingRight=4;overflow=hidden;rotatable=0;points=[[0,0.5],[1,0.5]];portConstraint=eastwest;whiteSpace=wrap;html=1;fontStyle=0;fontSize=16;" vertex="1" parent="h73j9yxgBd2oVGN-S1us-28">
          <mxGeometry y="130" width="220" height="30" as="geometry" />
        </mxCell>
        <mxCell id="h73j9yxgBd2oVGN-S1us-31" value="&lt;font color=&quot;#ffffff&quot; style=&quot;font-size: 16px;&quot;&gt;cantidad : tinyint&lt;/font&gt;" style="text;strokeColor=none;fillColor=none;align=left;verticalAlign=top;spacingLeft=4;spacingRight=4;overflow=hidden;rotatable=0;points=[[0,0.5],[1,0.5]];portConstraint=eastwest;whiteSpace=wrap;html=1;fontStyle=0;fontSize=16;" vertex="1" parent="h73j9yxgBd2oVGN-S1us-28">
          <mxGeometry y="160" width="220" height="30" as="geometry" />
        </mxCell>
        <mxCell id="h73j9yxgBd2oVGN-S1us-32" value="&lt;font color=&quot;#ffffff&quot;&gt;precioTotal : float( 8,2)&lt;/font&gt;" style="text;strokeColor=none;fillColor=none;align=left;verticalAlign=top;spacingLeft=4;spacingRight=4;overflow=hidden;rotatable=0;points=[[0,0.5],[1,0.5]];portConstraint=eastwest;whiteSpace=wrap;html=1;fontStyle=0;fontSize=16;" vertex="1" parent="h73j9yxgBd2oVGN-S1us-28">
          <mxGeometry y="190" width="220" height="30" as="geometry" />
        </mxCell>
        <mxCell id="h73j9yxgBd2oVGN-S1us-34" value="&lt;font color=&quot;#ffffff&quot;&gt;aclaraciones : char(255)&lt;/font&gt;" style="text;strokeColor=none;fillColor=none;align=left;verticalAlign=top;spacingLeft=4;spacingRight=4;overflow=hidden;rotatable=0;points=[[0,0.5],[1,0.5]];portConstraint=eastwest;whiteSpace=wrap;html=1;fontStyle=0;fontSize=16;" vertex="1" parent="h73j9yxgBd2oVGN-S1us-28">
          <mxGeometry y="220" width="220" height="30" as="geometry" />
        </mxCell>
        <mxCell id="h73j9yxgBd2oVGN-S1us-35" value="&lt;font color=&quot;#ffffff&quot;&gt;direccionEntrega : char(255)&lt;/font&gt;" style="text;strokeColor=none;fillColor=none;align=left;verticalAlign=top;spacingLeft=4;spacingRight=4;overflow=hidden;rotatable=0;points=[[0,0.5],[1,0.5]];portConstraint=eastwest;whiteSpace=wrap;html=1;fontStyle=0;fontSize=16;" vertex="1" parent="h73j9yxgBd2oVGN-S1us-28">
          <mxGeometry y="250" width="220" height="30" as="geometry" />
        </mxCell>
        <mxCell id="h73j9yxgBd2oVGN-S1us-37" value="&lt;font color=&quot;#ffffff&quot;&gt;fechaEnvio : date&lt;/font&gt;" style="text;strokeColor=none;fillColor=none;align=left;verticalAlign=top;spacingLeft=4;spacingRight=4;overflow=hidden;rotatable=0;points=[[0,0.5],[1,0.5]];portConstraint=eastwest;whiteSpace=wrap;html=1;fontStyle=0;fontSize=16;" vertex="1" parent="h73j9yxgBd2oVGN-S1us-28">
          <mxGeometry y="280" width="220" height="30" as="geometry" />
        </mxCell>
        <mxCell id="h73j9yxgBd2oVGN-S1us-36" value="&lt;font color=&quot;#ffffff&quot;&gt;horaEnvio : time&lt;/font&gt;" style="text;strokeColor=none;fillColor=none;align=left;verticalAlign=top;spacingLeft=4;spacingRight=4;overflow=hidden;rotatable=0;points=[[0,0.5],[1,0.5]];portConstraint=eastwest;whiteSpace=wrap;html=1;fontStyle=0;fontSize=16;" vertex="1" parent="h73j9yxgBd2oVGN-S1us-28">
          <mxGeometry y="310" width="220" height="30" as="geometry" />
        </mxCell>
        <mxCell id="h73j9yxgBd2oVGN-S1us-78" value="&lt;font color=&quot;#ffffff&quot; style=&quot;font-size: 16px;&quot;&gt;&lt;b&gt;usuarioId (FK) : int&lt;/b&gt;&lt;/font&gt;" style="text;strokeColor=none;fillColor=none;align=left;verticalAlign=top;spacingLeft=4;spacingRight=4;overflow=hidden;rotatable=0;points=[[0,0.5],[1,0.5]];portConstraint=eastwest;whiteSpace=wrap;html=1;fontStyle=0;fontSize=16;" vertex="1" parent="h73j9yxgBd2oVGN-S1us-28">
          <mxGeometry y="340" width="220" height="30" as="geometry" />
        </mxCell>
        <mxCell id="h73j9yxgBd2oVGN-S1us-84" value="&lt;font color=&quot;#ffffff&quot; style=&quot;font-size: 16px;&quot;&gt;&lt;b&gt;restauranteId (FK) : int&lt;/b&gt;&lt;/font&gt;" style="text;strokeColor=none;fillColor=none;align=left;verticalAlign=top;spacingLeft=4;spacingRight=4;overflow=hidden;rotatable=0;points=[[0,0.5],[1,0.5]];portConstraint=eastwest;whiteSpace=wrap;html=1;fontStyle=0;fontSize=16;" vertex="1" parent="h73j9yxgBd2oVGN-S1us-28">
          <mxGeometry y="370" width="220" height="30" as="geometry" />
        </mxCell>
        <mxCell id="h73j9yxgBd2oVGN-S1us-45" value="Usuarios" style="swimlane;fontStyle=1;childLayout=stackLayout;horizontal=1;startSize=40;fillColor=#008a00;horizontalStack=0;resizeParent=1;resizeParentMax=0;resizeLast=0;collapsible=1;marginBottom=0;whiteSpace=wrap;html=1;fontColor=#ffffff;strokeColor=#005700;swimlaneFillColor=#00CC00;fontSize=18;" vertex="1" parent="1">
          <mxGeometry x="580" y="-580" width="220" height="400" as="geometry" />
        </mxCell>
        <mxCell id="h73j9yxgBd2oVGN-S1us-46" value="&lt;font color=&quot;#ffffff&quot; style=&quot;font-size: 16px;&quot;&gt;&lt;b&gt;id (PK) : int&lt;/b&gt;&lt;/font&gt;" style="text;strokeColor=none;fillColor=none;align=left;verticalAlign=top;spacingLeft=4;spacingRight=4;overflow=hidden;rotatable=0;points=[[0,0.5],[1,0.5]];portConstraint=eastwest;whiteSpace=wrap;html=1;fontStyle=0;fontSize=16;" vertex="1" parent="h73j9yxgBd2oVGN-S1us-45">
          <mxGeometry y="40" width="220" height="30" as="geometry" />
        </mxCell>
        <mxCell id="h73j9yxgBd2oVGN-S1us-47" value="&lt;font color=&quot;#ffffff&quot; style=&quot;font-size: 16px;&quot;&gt;nombreCompleto : char(50)&lt;/font&gt;" style="text;strokeColor=none;fillColor=none;align=left;verticalAlign=top;spacingLeft=4;spacingRight=4;overflow=hidden;rotatable=0;points=[[0,0.5],[1,0.5]];portConstraint=eastwest;whiteSpace=wrap;html=1;fontStyle=0;fontSize=16;" vertex="1" parent="h73j9yxgBd2oVGN-S1us-45">
          <mxGeometry y="70" width="220" height="30" as="geometry" />
        </mxCell>
        <mxCell id="h73j9yxgBd2oVGN-S1us-51" value="&lt;font color=&quot;#ffffff&quot; style=&quot;font-size: 16px;&quot;&gt;telefono : char(30)&lt;/font&gt;" style="text;strokeColor=none;fillColor=none;align=left;verticalAlign=top;spacingLeft=4;spacingRight=4;overflow=hidden;rotatable=0;points=[[0,0.5],[1,0.5]];portConstraint=eastwest;whiteSpace=wrap;html=1;fontStyle=0;fontSize=16;" vertex="1" parent="h73j9yxgBd2oVGN-S1us-45">
          <mxGeometry y="100" width="220" height="30" as="geometry" />
        </mxCell>
        <mxCell id="h73j9yxgBd2oVGN-S1us-52" value="&lt;font color=&quot;#ffffff&quot; style=&quot;font-size: 16px;&quot;&gt;direccion : char(255)&lt;/font&gt;" style="text;strokeColor=none;fillColor=none;align=left;verticalAlign=top;spacingLeft=4;spacingRight=4;overflow=hidden;rotatable=0;points=[[0,0.5],[1,0.5]];portConstraint=eastwest;whiteSpace=wrap;html=1;fontStyle=0;fontSize=16;" vertex="1" parent="h73j9yxgBd2oVGN-S1us-45">
          <mxGeometry y="130" width="220" height="30" as="geometry" />
        </mxCell>
        <mxCell id="h73j9yxgBd2oVGN-S1us-53" value="&lt;font color=&quot;#ffffff&quot; style=&quot;font-size: 16px;&quot;&gt;numeroPuerta : tinyint&lt;/font&gt;" style="text;strokeColor=none;fillColor=none;align=left;verticalAlign=top;spacingLeft=4;spacingRight=4;overflow=hidden;rotatable=0;points=[[0,0.5],[1,0.5]];portConstraint=eastwest;whiteSpace=wrap;html=1;fontStyle=0;fontSize=16;" vertex="1" parent="h73j9yxgBd2oVGN-S1us-45">
          <mxGeometry y="160" width="220" height="30" as="geometry" />
        </mxCell>
        <mxCell id="h73j9yxgBd2oVGN-S1us-54" value="&lt;font color=&quot;#ffffff&quot; style=&quot;font-size: 16px;&quot;&gt;piso : tinyint&lt;/font&gt;" style="text;strokeColor=none;fillColor=none;align=left;verticalAlign=top;spacingLeft=4;spacingRight=4;overflow=hidden;rotatable=0;points=[[0,0.5],[1,0.5]];portConstraint=eastwest;whiteSpace=wrap;html=1;fontStyle=0;fontSize=16;" vertex="1" parent="h73j9yxgBd2oVGN-S1us-45">
          <mxGeometry y="190" width="220" height="30" as="geometry" />
        </mxCell>
        <mxCell id="h73j9yxgBd2oVGN-S1us-55" value="&lt;font color=&quot;#ffffff&quot; style=&quot;font-size: 16px;&quot;&gt;departamento : char(10)&lt;/font&gt;" style="text;strokeColor=none;fillColor=none;align=left;verticalAlign=top;spacingLeft=4;spacingRight=4;overflow=hidden;rotatable=0;points=[[0,0.5],[1,0.5]];portConstraint=eastwest;whiteSpace=wrap;html=1;fontStyle=0;fontSize=16;" vertex="1" parent="h73j9yxgBd2oVGN-S1us-45">
          <mxGeometry y="220" width="220" height="30" as="geometry" />
        </mxCell>
        <mxCell id="h73j9yxgBd2oVGN-S1us-56" value="&lt;font color=&quot;#ffffff&quot; style=&quot;font-size: 16px;&quot;&gt;aclaraciones: char(255)&lt;/font&gt;" style="text;strokeColor=none;fillColor=none;align=left;verticalAlign=top;spacingLeft=4;spacingRight=4;overflow=hidden;rotatable=0;points=[[0,0.5],[1,0.5]];portConstraint=eastwest;whiteSpace=wrap;html=1;fontStyle=0;fontSize=16;" vertex="1" parent="h73j9yxgBd2oVGN-S1us-45">
          <mxGeometry y="250" width="220" height="30" as="geometry" />
        </mxCell>
        <mxCell id="h73j9yxgBd2oVGN-S1us-57" value="&lt;font color=&quot;#ffffff&quot; style=&quot;font-size: 16px;&quot;&gt;mail: char(100)&lt;/font&gt;" style="text;strokeColor=none;fillColor=none;align=left;verticalAlign=top;spacingLeft=4;spacingRight=4;overflow=hidden;rotatable=0;points=[[0,0.5],[1,0.5]];portConstraint=eastwest;whiteSpace=wrap;html=1;fontStyle=0;fontSize=16;" vertex="1" parent="h73j9yxgBd2oVGN-S1us-45">
          <mxGeometry y="280" width="220" height="30" as="geometry" />
        </mxCell>
        <mxCell id="h73j9yxgBd2oVGN-S1us-60" value="&lt;font color=&quot;#ffffff&quot; style=&quot;font-size: 16px;&quot;&gt;contrasenia : char(20)&lt;/font&gt;" style="text;strokeColor=none;fillColor=none;align=left;verticalAlign=top;spacingLeft=4;spacingRight=4;overflow=hidden;rotatable=0;points=[[0,0.5],[1,0.5]];portConstraint=eastwest;whiteSpace=wrap;html=1;fontStyle=0;fontSize=16;" vertex="1" parent="h73j9yxgBd2oVGN-S1us-45">
          <mxGeometry y="310" width="220" height="30" as="geometry" />
        </mxCell>
        <mxCell id="h73j9yxgBd2oVGN-S1us-58" value="&lt;font color=&quot;#ffffff&quot; style=&quot;font-size: 16px;&quot;&gt;estado : char(4)&lt;/font&gt;" style="text;strokeColor=none;fillColor=none;align=left;verticalAlign=top;spacingLeft=4;spacingRight=4;overflow=hidden;rotatable=0;points=[[0,0.5],[1,0.5]];portConstraint=eastwest;whiteSpace=wrap;html=1;fontStyle=0;fontSize=16;" vertex="1" parent="h73j9yxgBd2oVGN-S1us-45">
          <mxGeometry y="340" width="220" height="30" as="geometry" />
        </mxCell>
        <mxCell id="h73j9yxgBd2oVGN-S1us-81" value="&lt;font color=&quot;#ffffff&quot; style=&quot;font-size: 16px;&quot;&gt;&lt;b&gt;membresiaId (FK) : int&lt;/b&gt;&lt;/font&gt;" style="text;strokeColor=none;fillColor=none;align=left;verticalAlign=top;spacingLeft=4;spacingRight=4;overflow=hidden;rotatable=0;points=[[0,0.5],[1,0.5]];portConstraint=eastwest;whiteSpace=wrap;html=1;fontStyle=0;fontSize=16;" vertex="1" parent="h73j9yxgBd2oVGN-S1us-45">
          <mxGeometry y="370" width="220" height="30" as="geometry" />
        </mxCell>
        <mxCell id="h73j9yxgBd2oVGN-S1us-61" value="Membresia" style="swimlane;fontStyle=1;childLayout=stackLayout;horizontal=1;startSize=40;fillColor=#008a00;horizontalStack=0;resizeParent=1;resizeParentMax=0;resizeLast=0;collapsible=1;marginBottom=0;whiteSpace=wrap;html=1;fontColor=#ffffff;strokeColor=#005700;swimlaneFillColor=#00CC00;fontSize=18;" vertex="1" parent="1">
          <mxGeometry x="980" y="-475" width="220" height="160" as="geometry" />
        </mxCell>
        <mxCell id="h73j9yxgBd2oVGN-S1us-62" value="&lt;font color=&quot;#ffffff&quot; style=&quot;font-size: 16px;&quot;&gt;&lt;b&gt;id (PK) : int&lt;/b&gt;&lt;/font&gt;" style="text;strokeColor=none;fillColor=none;align=left;verticalAlign=top;spacingLeft=4;spacingRight=4;overflow=hidden;rotatable=0;points=[[0,0.5],[1,0.5]];portConstraint=eastwest;whiteSpace=wrap;html=1;fontStyle=0;fontSize=16;" vertex="1" parent="h73j9yxgBd2oVGN-S1us-61">
          <mxGeometry y="40" width="220" height="30" as="geometry" />
        </mxCell>
        <mxCell id="h73j9yxgBd2oVGN-S1us-73" value="&lt;font color=&quot;#ffffff&quot; style=&quot;font-size: 16px;&quot;&gt;fechaAlta : date&lt;/font&gt;" style="text;strokeColor=none;fillColor=none;align=left;verticalAlign=top;spacingLeft=4;spacingRight=4;overflow=hidden;rotatable=0;points=[[0,0.5],[1,0.5]];portConstraint=eastwest;whiteSpace=wrap;html=1;fontStyle=0;fontSize=16;" vertex="1" parent="h73j9yxgBd2oVGN-S1us-61">
          <mxGeometry y="70" width="220" height="30" as="geometry" />
        </mxCell>
        <mxCell id="h73j9yxgBd2oVGN-S1us-74" value="&lt;font color=&quot;#ffffff&quot; style=&quot;font-size: 16px;&quot;&gt;fechaVencimiento : date&lt;/font&gt;" style="text;strokeColor=none;fillColor=none;align=left;verticalAlign=top;spacingLeft=4;spacingRight=4;overflow=hidden;rotatable=0;points=[[0,0.5],[1,0.5]];portConstraint=eastwest;whiteSpace=wrap;html=1;fontStyle=0;fontSize=16;" vertex="1" parent="h73j9yxgBd2oVGN-S1us-61">
          <mxGeometry y="100" width="220" height="30" as="geometry" />
        </mxCell>
        <mxCell id="h73j9yxgBd2oVGN-S1us-75" value="&lt;font color=&quot;#ffffff&quot; style=&quot;font-size: 16px;&quot;&gt;renovacion : char(50)&lt;/font&gt;" style="text;strokeColor=none;fillColor=none;align=left;verticalAlign=top;spacingLeft=4;spacingRight=4;overflow=hidden;rotatable=0;points=[[0,0.5],[1,0.5]];portConstraint=eastwest;whiteSpace=wrap;html=1;fontStyle=0;fontSize=16;" vertex="1" parent="h73j9yxgBd2oVGN-S1us-61">
          <mxGeometry y="130" width="220" height="30" as="geometry" />
        </mxCell>
        <mxCell id="h73j9yxgBd2oVGN-S1us-77" value="&lt;font style=&quot;font-size: 22px;&quot;&gt;M&lt;/font&gt;" style="text;html=1;align=center;verticalAlign=middle;resizable=0;points=[];autosize=1;strokeColor=none;fillColor=none;fontStyle=1" vertex="1" parent="1">
          <mxGeometry x="435" y="-450" width="40" height="40" as="geometry" />
        </mxCell>
        <mxCell id="h73j9yxgBd2oVGN-S1us-79" style="edgeStyle=orthogonalEdgeStyle;rounded=0;orthogonalLoop=1;jettySize=auto;html=1;endArrow=none;endFill=0;" edge="1" parent="1" source="h73j9yxgBd2oVGN-S1us-53" target="h73j9yxgBd2oVGN-S1us-73">
          <mxGeometry relative="1" as="geometry">
            <Array as="points">
              <mxPoint x="920" y="-405" />
              <mxPoint x="920" y="-405" />
            </Array>
          </mxGeometry>
        </mxCell>
        <mxCell id="h73j9yxgBd2oVGN-S1us-80" value="&lt;font style=&quot;font-size: 22px;&quot;&gt;M&lt;/font&gt;" style="text;html=1;align=center;verticalAlign=middle;resizable=0;points=[];autosize=1;strokeColor=none;fillColor=none;fontStyle=1" vertex="1" parent="1">
          <mxGeometry x="810" y="-450" width="40" height="40" as="geometry" />
        </mxCell>
        <mxCell id="h73j9yxgBd2oVGN-S1us-83" value="&lt;font style=&quot;font-size: 22px;&quot;&gt;M&lt;/font&gt;" style="text;html=1;align=center;verticalAlign=middle;resizable=0;points=[];autosize=1;strokeColor=none;fillColor=none;fontStyle=1" vertex="1" parent="1">
          <mxGeometry x="340" y="-624" width="40" height="40" as="geometry" />
        </mxCell>
        <mxCell id="h73j9yxgBd2oVGN-S1us-86" value="&lt;font style=&quot;font-size: 22px;&quot;&gt;M&lt;/font&gt;" style="text;html=1;align=center;verticalAlign=middle;resizable=0;points=[];autosize=1;strokeColor=none;fillColor=none;fontStyle=1" vertex="1" parent="1">
          <mxGeometry x="-460" y="-425" width="40" height="40" as="geometry" />
        </mxCell>
        <mxCell id="h73j9yxgBd2oVGN-S1us-88" value="PlatosPedidos" style="swimlane;fontStyle=1;childLayout=stackLayout;horizontal=1;startSize=40;fillColor=#008a00;horizontalStack=0;resizeParent=1;resizeParentMax=0;resizeLast=0;collapsible=1;marginBottom=0;whiteSpace=wrap;html=1;fontColor=#ffffff;strokeColor=#005700;swimlaneFillColor=#00CC00;fontSize=18;" vertex="1" parent="1">
          <mxGeometry x="-110" y="-480" width="220" height="130" as="geometry" />
        </mxCell>
        <mxCell id="h73j9yxgBd2oVGN-S1us-89" value="&lt;font color=&quot;#ffffff&quot; style=&quot;font-size: 16px;&quot;&gt;&lt;b&gt;id (PK) : int&lt;/b&gt;&lt;/font&gt;" style="text;strokeColor=none;fillColor=none;align=left;verticalAlign=top;spacingLeft=4;spacingRight=4;overflow=hidden;rotatable=0;points=[[0,0.5],[1,0.5]];portConstraint=eastwest;whiteSpace=wrap;html=1;fontStyle=0;fontSize=16;" vertex="1" parent="h73j9yxgBd2oVGN-S1us-88">
          <mxGeometry y="40" width="220" height="30" as="geometry" />
        </mxCell>
        <mxCell id="h73j9yxgBd2oVGN-S1us-94" value="&lt;font color=&quot;#ffffff&quot; style=&quot;font-size: 16px;&quot;&gt;&lt;b&gt;platosId (FK) : int&lt;/b&gt;&lt;/font&gt;" style="text;strokeColor=none;fillColor=none;align=left;verticalAlign=top;spacingLeft=4;spacingRight=4;overflow=hidden;rotatable=0;points=[[0,0.5],[1,0.5]];portConstraint=eastwest;whiteSpace=wrap;html=1;fontStyle=0;fontSize=16;" vertex="1" parent="h73j9yxgBd2oVGN-S1us-88">
          <mxGeometry y="70" width="220" height="30" as="geometry" />
        </mxCell>
        <mxCell id="h73j9yxgBd2oVGN-S1us-95" value="&lt;font color=&quot;#ffffff&quot; style=&quot;font-size: 16px;&quot;&gt;&lt;b&gt;pedidosId (FK) : int&lt;/b&gt;&lt;/font&gt;" style="text;strokeColor=none;fillColor=none;align=left;verticalAlign=top;spacingLeft=4;spacingRight=4;overflow=hidden;rotatable=0;points=[[0,0.5],[1,0.5]];portConstraint=eastwest;whiteSpace=wrap;html=1;fontStyle=0;fontSize=16;" vertex="1" parent="h73j9yxgBd2oVGN-S1us-88">
          <mxGeometry y="100" width="220" height="30" as="geometry" />
        </mxCell>
        <mxCell id="h73j9yxgBd2oVGN-S1us-97" style="edgeStyle=orthogonalEdgeStyle;rounded=0;orthogonalLoop=1;jettySize=auto;html=1;entryX=1.02;entryY=0.19;entryDx=0;entryDy=0;entryPerimeter=0;endArrow=none;endFill=0;" edge="1" parent="1" source="h73j9yxgBd2oVGN-S1us-31" target="h73j9yxgBd2oVGN-S1us-94">
          <mxGeometry relative="1" as="geometry" />
        </mxCell>
        <mxCell id="h73j9yxgBd2oVGN-S1us-98" value="&lt;font style=&quot;font-size: 22px;&quot;&gt;M&lt;/font&gt;" style="text;html=1;align=center;verticalAlign=middle;resizable=0;points=[];autosize=1;strokeColor=none;fillColor=none;fontStyle=1" vertex="1" parent="1">
          <mxGeometry x="110" y="-450" width="40" height="40" as="geometry" />
        </mxCell>
        <mxCell id="h73j9yxgBd2oVGN-S1us-99" value="&lt;font style=&quot;font-size: 22px;&quot;&gt;M&lt;/font&gt;" style="text;html=1;align=center;verticalAlign=middle;resizable=0;points=[];autosize=1;strokeColor=none;fillColor=none;fontStyle=1" vertex="1" parent="1">
          <mxGeometry x="-150" y="-435" width="40" height="40" as="geometry" />
        </mxCell>
        <mxCell id="h73j9yxgBd2oVGN-S1us-101" value="PlatosIngredientes" style="swimlane;fontStyle=1;childLayout=stackLayout;horizontal=1;startSize=40;fillColor=#008a00;horizontalStack=0;resizeParent=1;resizeParentMax=0;resizeLast=0;collapsible=1;marginBottom=0;whiteSpace=wrap;html=1;fontColor=#ffffff;strokeColor=#005700;swimlaneFillColor=#00CC00;fontSize=18;" vertex="1" parent="1">
          <mxGeometry x="-420" y="-168" width="220" height="130" as="geometry" />
        </mxCell>
        <mxCell id="h73j9yxgBd2oVGN-S1us-102" value="&lt;font color=&quot;#ffffff&quot; style=&quot;font-size: 16px;&quot;&gt;&lt;b&gt;id (PK) : int&lt;/b&gt;&lt;/font&gt;" style="text;strokeColor=none;fillColor=none;align=left;verticalAlign=top;spacingLeft=4;spacingRight=4;overflow=hidden;rotatable=0;points=[[0,0.5],[1,0.5]];portConstraint=eastwest;whiteSpace=wrap;html=1;fontStyle=0;fontSize=16;" vertex="1" parent="h73j9yxgBd2oVGN-S1us-101">
          <mxGeometry y="40" width="220" height="30" as="geometry" />
        </mxCell>
        <mxCell id="h73j9yxgBd2oVGN-S1us-103" value="&lt;font color=&quot;#ffffff&quot; style=&quot;font-size: 16px;&quot;&gt;&lt;b&gt;platosId (FK) : int&lt;/b&gt;&lt;/font&gt;" style="text;strokeColor=none;fillColor=none;align=left;verticalAlign=top;spacingLeft=4;spacingRight=4;overflow=hidden;rotatable=0;points=[[0,0.5],[1,0.5]];portConstraint=eastwest;whiteSpace=wrap;html=1;fontStyle=0;fontSize=16;" vertex="1" parent="h73j9yxgBd2oVGN-S1us-101">
          <mxGeometry y="70" width="220" height="30" as="geometry" />
        </mxCell>
        <mxCell id="h73j9yxgBd2oVGN-S1us-104" value="&lt;font color=&quot;#ffffff&quot; style=&quot;font-size: 16px;&quot;&gt;&lt;b&gt;ingredientesId (FK) : int&lt;/b&gt;&lt;/font&gt;" style="text;strokeColor=none;fillColor=none;align=left;verticalAlign=top;spacingLeft=4;spacingRight=4;overflow=hidden;rotatable=0;points=[[0,0.5],[1,0.5]];portConstraint=eastwest;whiteSpace=wrap;html=1;fontStyle=0;fontSize=16;" vertex="1" parent="h73j9yxgBd2oVGN-S1us-101">
          <mxGeometry y="100" width="220" height="30" as="geometry" />
        </mxCell>
        <mxCell id="h73j9yxgBd2oVGN-S1us-108" value="&lt;font style=&quot;font-size: 22px;&quot;&gt;M&lt;/font&gt;" style="text;html=1;align=center;verticalAlign=middle;resizable=0;points=[];autosize=1;strokeColor=none;fillColor=none;fontStyle=1" vertex="1" parent="1">
          <mxGeometry x="-310" y="-220" width="40" height="40" as="geometry" />
        </mxCell>
        <mxCell id="h73j9yxgBd2oVGN-S1us-109" value="&lt;font style=&quot;font-size: 22px;&quot;&gt;M&lt;/font&gt;" style="text;html=1;align=center;verticalAlign=middle;resizable=0;points=[];autosize=1;strokeColor=none;fillColor=none;fontStyle=1" vertex="1" parent="1">
          <mxGeometry x="-310" y="-38" width="40" height="40" as="geometry" />
        </mxCell>
      </root>
    </mxGraphModel>
  </diagram>
  <diagram id="q45k3PQbv4l8QcNCrRUx" name="TM">
    <mxGraphModel grid="1" page="1" gridSize="10" guides="1" tooltips="1" connect="1" arrows="1" fold="1" pageScale="1" pageWidth="827" pageHeight="1169" math="0" shadow="0">
      <root>
        <mxCell id="0" />
        <mxCell id="1" parent="0" />
        <mxCell id="0BILyzVKihJkKOWGK6js-1" value="&lt;font color=&quot;#ffffff&quot;&gt;Restaurantes&lt;/font&gt;" style="swimlane;fontStyle=1;childLayout=stackLayout;horizontal=1;startSize=26;fillColor=#6666FF;horizontalStack=0;resizeParent=1;resizeParentMax=0;resizeLast=0;collapsible=1;marginBottom=0;whiteSpace=wrap;html=1;strokeColor=#6c8ebf;swimlaneFillColor=#D4E1F5;" vertex="1" parent="1">
          <mxGeometry x="240" y="160" width="150" height="182" as="geometry">
            <mxRectangle x="380" y="90" width="120" height="30" as="alternateBounds" />
          </mxGeometry>
        </mxCell>
        <mxCell id="0BILyzVKihJkKOWGK6js-2" value="&lt;b&gt;id (PK) : int&lt;/b&gt;" style="text;strokeColor=none;fillColor=none;align=left;verticalAlign=top;spacingLeft=4;spacingRight=4;overflow=hidden;rotatable=0;points=[[0,0.5],[1,0.5]];portConstraint=eastwest;whiteSpace=wrap;html=1;" vertex="1" parent="0BILyzVKihJkKOWGK6js-1">
          <mxGeometry y="26" width="150" height="26" as="geometry" />
        </mxCell>
        <mxCell id="0BILyzVKihJkKOWGK6js-3" value="nombre : char(50)" style="text;strokeColor=none;fillColor=none;align=left;verticalAlign=top;spacingLeft=4;spacingRight=4;overflow=hidden;rotatable=0;points=[[0,0.5],[1,0.5]];portConstraint=eastwest;whiteSpace=wrap;html=1;" vertex="1" parent="0BILyzVKihJkKOWGK6js-1">
          <mxGeometry y="52" width="150" height="26" as="geometry" />
        </mxCell>
        <mxCell id="0BILyzVKihJkKOWGK6js-4" value="foto : longtext" style="text;strokeColor=none;fillColor=none;align=left;verticalAlign=top;spacingLeft=4;spacingRight=4;overflow=hidden;rotatable=0;points=[[0,0.5],[1,0.5]];portConstraint=eastwest;whiteSpace=wrap;html=1;" vertex="1" parent="0BILyzVKihJkKOWGK6js-1">
          <mxGeometry y="78" width="150" height="26" as="geometry" />
        </mxCell>
        <mxCell id="0BILyzVKihJkKOWGK6js-5" value="direccion : char(255)" style="text;strokeColor=none;fillColor=none;align=left;verticalAlign=top;spacingLeft=4;spacingRight=4;overflow=hidden;rotatable=0;points=[[0,0.5],[1,0.5]];portConstraint=eastwest;whiteSpace=wrap;html=1;" vertex="1" parent="0BILyzVKihJkKOWGK6js-1">
          <mxGeometry y="104" width="150" height="26" as="geometry" />
        </mxCell>
        <mxCell id="0BILyzVKihJkKOWGK6js-6" value="horarioAtecion : char(255)" style="text;strokeColor=none;fillColor=none;align=left;verticalAlign=top;spacingLeft=4;spacingRight=4;overflow=hidden;rotatable=0;points=[[0,0.5],[1,0.5]];portConstraint=eastwest;whiteSpace=wrap;html=1;" vertex="1" parent="0BILyzVKihJkKOWGK6js-1">
          <mxGeometry y="130" width="150" height="26" as="geometry" />
        </mxCell>
        <mxCell id="0BILyzVKihJkKOWGK6js-7" value="calificacion : tinyint(1)" style="text;strokeColor=none;fillColor=none;align=left;verticalAlign=top;spacingLeft=4;spacingRight=4;overflow=hidden;rotatable=0;points=[[0,0.5],[1,0.5]];portConstraint=eastwest;whiteSpace=wrap;html=1;" vertex="1" parent="0BILyzVKihJkKOWGK6js-1">
          <mxGeometry y="156" width="150" height="26" as="geometry" />
        </mxCell>
        <mxCell id="0BILyzVKihJkKOWGK6js-8" style="edgeStyle=orthogonalEdgeStyle;rounded=0;orthogonalLoop=1;jettySize=auto;html=1;entryX=1;entryY=0.5;entryDx=0;entryDy=0;endArrow=none;endFill=0;" edge="1" parent="1" source="0BILyzVKihJkKOWGK6js-10" target="0BILyzVKihJkKOWGK6js-59">
          <mxGeometry relative="1" as="geometry">
            <Array as="points">
              <mxPoint x="220" y="520" />
              <mxPoint x="220" y="520" />
            </Array>
          </mxGeometry>
        </mxCell>
        <mxCell id="0BILyzVKihJkKOWGK6js-9" style="edgeStyle=orthogonalEdgeStyle;rounded=0;orthogonalLoop=1;jettySize=auto;html=1;entryX=-0.006;entryY=0.231;entryDx=0;entryDy=0;entryPerimeter=0;endArrow=none;endFill=0;" edge="1" parent="1" source="0BILyzVKihJkKOWGK6js-10" target="0BILyzVKihJkKOWGK6js-65">
          <mxGeometry relative="1" as="geometry" />
        </mxCell>
        <mxCell id="0BILyzVKihJkKOWGK6js-10" value="&lt;font color=&quot;#ffffff&quot;&gt;Plato&lt;/font&gt;" style="swimlane;fontStyle=1;childLayout=stackLayout;horizontal=1;startSize=26;fillColor=#6666FF;horizontalStack=0;resizeParent=1;resizeParentMax=0;resizeLast=0;collapsible=1;marginBottom=0;whiteSpace=wrap;html=1;strokeColor=#6c8ebf;swimlaneFillColor=#D4E1F5;" vertex="1" parent="1">
          <mxGeometry x="240" y="429" width="140" height="156" as="geometry" />
        </mxCell>
        <mxCell id="0BILyzVKihJkKOWGK6js-11" value="&lt;b&gt;id (PK) : int&lt;/b&gt;" style="text;strokeColor=none;fillColor=none;align=left;verticalAlign=top;spacingLeft=4;spacingRight=4;overflow=hidden;rotatable=0;points=[[0,0.5],[1,0.5]];portConstraint=eastwest;whiteSpace=wrap;html=1;" vertex="1" parent="0BILyzVKihJkKOWGK6js-10">
          <mxGeometry y="26" width="140" height="26" as="geometry" />
        </mxCell>
        <mxCell id="0BILyzVKihJkKOWGK6js-12" value="nombre : char(100)" style="text;strokeColor=none;fillColor=none;align=left;verticalAlign=top;spacingLeft=4;spacingRight=4;overflow=hidden;rotatable=0;points=[[0,0.5],[1,0.5]];portConstraint=eastwest;whiteSpace=wrap;html=1;" vertex="1" parent="0BILyzVKihJkKOWGK6js-10">
          <mxGeometry y="52" width="140" height="26" as="geometry" />
        </mxCell>
        <mxCell id="0BILyzVKihJkKOWGK6js-13" value="foto : longtext&lt;span style=&quot;white-space: pre;&quot;&gt;&#x9;&lt;/span&gt;" style="text;strokeColor=none;fillColor=none;align=left;verticalAlign=top;spacingLeft=4;spacingRight=4;overflow=hidden;rotatable=0;points=[[0,0.5],[1,0.5]];portConstraint=eastwest;whiteSpace=wrap;html=1;" vertex="1" parent="0BILyzVKihJkKOWGK6js-10">
          <mxGeometry y="78" width="140" height="26" as="geometry" />
        </mxCell>
        <mxCell id="0BILyzVKihJkKOWGK6js-14" value="descripcion: char(255)" style="text;strokeColor=none;fillColor=none;align=left;verticalAlign=top;spacingLeft=4;spacingRight=4;overflow=hidden;rotatable=0;points=[[0,0.5],[1,0.5]];portConstraint=eastwest;whiteSpace=wrap;html=1;" vertex="1" parent="0BILyzVKihJkKOWGK6js-10">
          <mxGeometry y="104" width="140" height="26" as="geometry" />
        </mxCell>
        <mxCell id="0BILyzVKihJkKOWGK6js-15" value="precio : float(8,2)" style="text;strokeColor=none;fillColor=none;align=left;verticalAlign=top;spacingLeft=4;spacingRight=4;overflow=hidden;rotatable=0;points=[[0,0.5],[1,0.5]];portConstraint=eastwest;whiteSpace=wrap;html=1;" vertex="1" parent="0BILyzVKihJkKOWGK6js-10">
          <mxGeometry y="130" width="140" height="26" as="geometry" />
        </mxCell>
        <mxCell id="0BILyzVKihJkKOWGK6js-16" style="edgeStyle=orthogonalEdgeStyle;rounded=0;orthogonalLoop=1;jettySize=auto;html=1;entryX=0;entryY=0.5;entryDx=0;entryDy=0;endArrow=none;endFill=0;" edge="1" parent="1" source="0BILyzVKihJkKOWGK6js-17" target="0BILyzVKihJkKOWGK6js-57">
          <mxGeometry relative="1" as="geometry">
            <Array as="points">
              <mxPoint x="-15" y="481" />
              <mxPoint x="-15" y="480" />
              <mxPoint x="20" y="480" />
            </Array>
          </mxGeometry>
        </mxCell>
        <mxCell id="0BILyzVKihJkKOWGK6js-17" value="&lt;font color=&quot;#ffffff&quot;&gt;Ingrediente&lt;/font&gt;" style="swimlane;fontStyle=1;childLayout=stackLayout;horizontal=1;startSize=26;fillColor=#6666FF;horizontalStack=0;resizeParent=1;resizeParentMax=0;resizeLast=0;collapsible=1;marginBottom=0;whiteSpace=wrap;html=1;strokeColor=#6c8ebf;swimlaneFillColor=#D4E1F5;" vertex="1" parent="1">
          <mxGeometry x="-190" y="429" width="140" height="104" as="geometry" />
        </mxCell>
        <mxCell id="0BILyzVKihJkKOWGK6js-18" value="&lt;b&gt;id (PK) : int&lt;/b&gt;" style="text;strokeColor=none;fillColor=none;align=left;verticalAlign=top;spacingLeft=4;spacingRight=4;overflow=hidden;rotatable=0;points=[[0,0.5],[1,0.5]];portConstraint=eastwest;whiteSpace=wrap;html=1;" vertex="1" parent="0BILyzVKihJkKOWGK6js-17">
          <mxGeometry y="26" width="140" height="26" as="geometry" />
        </mxCell>
        <mxCell id="0BILyzVKihJkKOWGK6js-19" value="nombre : char(50)" style="text;strokeColor=none;fillColor=none;align=left;verticalAlign=top;spacingLeft=4;spacingRight=4;overflow=hidden;rotatable=0;points=[[0,0.5],[1,0.5]];portConstraint=eastwest;whiteSpace=wrap;html=1;" vertex="1" parent="0BILyzVKihJkKOWGK6js-17">
          <mxGeometry y="52" width="140" height="26" as="geometry" />
        </mxCell>
        <mxCell id="0BILyzVKihJkKOWGK6js-20" value="detalle : char(255)" style="text;strokeColor=none;fillColor=none;align=left;verticalAlign=top;spacingLeft=4;spacingRight=4;overflow=hidden;rotatable=0;points=[[0,0.5],[1,0.5]];portConstraint=eastwest;whiteSpace=wrap;html=1;" vertex="1" parent="0BILyzVKihJkKOWGK6js-17">
          <mxGeometry y="78" width="140" height="26" as="geometry" />
        </mxCell>
        <mxCell id="0BILyzVKihJkKOWGK6js-21" style="edgeStyle=orthogonalEdgeStyle;rounded=0;orthogonalLoop=1;jettySize=auto;html=1;endArrow=none;endFill=0;" edge="1" parent="1" source="0BILyzVKihJkKOWGK6js-22" target="0BILyzVKihJkKOWGK6js-39">
          <mxGeometry relative="1" as="geometry" />
        </mxCell>
        <mxCell id="0BILyzVKihJkKOWGK6js-22" value="&lt;font color=&quot;#ffffff&quot;&gt;Pedido&lt;/font&gt;" style="swimlane;fontStyle=1;childLayout=stackLayout;horizontal=1;startSize=26;fillColor=#6666FF;horizontalStack=0;resizeParent=1;resizeParentMax=0;resizeLast=0;collapsible=1;marginBottom=0;whiteSpace=wrap;html=1;strokeColor=#6c8ebf;swimlaneFillColor=#D4E1F5;" vertex="1" parent="1">
          <mxGeometry x="480" y="160" width="180" height="312" as="geometry">
            <mxRectangle x="550" y="90" width="80" height="30" as="alternateBounds" />
          </mxGeometry>
        </mxCell>
        <mxCell id="0BILyzVKihJkKOWGK6js-23" value="&lt;b&gt;id (PK) : int&lt;/b&gt;" style="text;strokeColor=none;fillColor=none;align=left;verticalAlign=top;spacingLeft=4;spacingRight=4;overflow=hidden;rotatable=0;points=[[0,0.5],[1,0.5]];portConstraint=eastwest;whiteSpace=wrap;html=1;" vertex="1" parent="0BILyzVKihJkKOWGK6js-22">
          <mxGeometry y="26" width="180" height="26" as="geometry" />
        </mxCell>
        <mxCell id="0BILyzVKihJkKOWGK6js-24" value="fechaRealizacion : date" style="text;strokeColor=none;fillColor=none;align=left;verticalAlign=top;spacingLeft=4;spacingRight=4;overflow=hidden;rotatable=0;points=[[0,0.5],[1,0.5]];portConstraint=eastwest;whiteSpace=wrap;html=1;fontStyle=1" vertex="1" parent="0BILyzVKihJkKOWGK6js-22">
          <mxGeometry y="52" width="180" height="26" as="geometry" />
        </mxCell>
        <mxCell id="0BILyzVKihJkKOWGK6js-25" value="horaRealizacion : time" style="text;strokeColor=none;fillColor=none;align=left;verticalAlign=top;spacingLeft=4;spacingRight=4;overflow=hidden;rotatable=0;points=[[0,0.5],[1,0.5]];portConstraint=eastwest;whiteSpace=wrap;html=1;fontStyle=1" vertex="1" parent="0BILyzVKihJkKOWGK6js-22">
          <mxGeometry y="78" width="180" height="26" as="geometry" />
        </mxCell>
        <mxCell id="0BILyzVKihJkKOWGK6js-26" value="cantidad : tinyint(3)" style="text;strokeColor=none;fillColor=none;align=left;verticalAlign=top;spacingLeft=4;spacingRight=4;overflow=hidden;rotatable=0;points=[[0,0.5],[1,0.5]];portConstraint=eastwest;whiteSpace=wrap;html=1;fontStyle=1" vertex="1" parent="0BILyzVKihJkKOWGK6js-22">
          <mxGeometry y="104" width="180" height="26" as="geometry" />
        </mxCell>
        <mxCell id="0BILyzVKihJkKOWGK6js-27" value="precioFinal : float(8,2)" style="text;strokeColor=none;fillColor=none;align=left;verticalAlign=top;spacingLeft=4;spacingRight=4;overflow=hidden;rotatable=0;points=[[0,0.5],[1,0.5]];portConstraint=eastwest;whiteSpace=wrap;html=1;fontStyle=1" vertex="1" parent="0BILyzVKihJkKOWGK6js-22">
          <mxGeometry y="130" width="180" height="26" as="geometry" />
        </mxCell>
        <mxCell id="0BILyzVKihJkKOWGK6js-28" value="aclaraciones : char(255)" style="text;strokeColor=none;fillColor=none;align=left;verticalAlign=top;spacingLeft=4;spacingRight=4;overflow=hidden;rotatable=0;points=[[0,0.5],[1,0.5]];portConstraint=eastwest;whiteSpace=wrap;html=1;fontStyle=1" vertex="1" parent="0BILyzVKihJkKOWGK6js-22">
          <mxGeometry y="156" width="180" height="26" as="geometry" />
        </mxCell>
        <mxCell id="0BILyzVKihJkKOWGK6js-29" value="direccionEntrega : char(255)" style="text;strokeColor=none;fillColor=none;align=left;verticalAlign=top;spacingLeft=4;spacingRight=4;overflow=hidden;rotatable=0;points=[[0,0.5],[1,0.5]];portConstraint=eastwest;whiteSpace=wrap;html=1;fontStyle=1" vertex="1" parent="0BILyzVKihJkKOWGK6js-22">
          <mxGeometry y="182" width="180" height="26" as="geometry" />
        </mxCell>
        <mxCell id="0BILyzVKihJkKOWGK6js-30" value="fechaEnvio : date" style="text;strokeColor=none;fillColor=none;align=left;verticalAlign=top;spacingLeft=4;spacingRight=4;overflow=hidden;rotatable=0;points=[[0,0.5],[1,0.5]];portConstraint=eastwest;whiteSpace=wrap;html=1;fontStyle=1" vertex="1" parent="0BILyzVKihJkKOWGK6js-22">
          <mxGeometry y="208" width="180" height="26" as="geometry" />
        </mxCell>
        <mxCell id="0BILyzVKihJkKOWGK6js-31" value="horaEnvio : time" style="text;strokeColor=none;fillColor=none;align=left;verticalAlign=top;spacingLeft=4;spacingRight=4;overflow=hidden;rotatable=0;points=[[0,0.5],[1,0.5]];portConstraint=eastwest;whiteSpace=wrap;html=1;fontStyle=1" vertex="1" parent="0BILyzVKihJkKOWGK6js-22">
          <mxGeometry y="234" width="180" height="26" as="geometry" />
        </mxCell>
        <mxCell id="0BILyzVKihJkKOWGK6js-32" value="&lt;b&gt;restaurantId (FK) : int&lt;/b&gt;" style="text;strokeColor=none;fillColor=none;align=left;verticalAlign=top;spacingLeft=4;spacingRight=4;overflow=hidden;rotatable=0;points=[[0,0.5],[1,0.5]];portConstraint=eastwest;whiteSpace=wrap;html=1;" vertex="1" parent="0BILyzVKihJkKOWGK6js-22">
          <mxGeometry y="260" width="180" height="26" as="geometry" />
        </mxCell>
        <mxCell id="0BILyzVKihJkKOWGK6js-33" value="&lt;b&gt;usuarioId (FK) : int&lt;/b&gt;" style="text;strokeColor=none;fillColor=none;align=left;verticalAlign=top;spacingLeft=4;spacingRight=4;overflow=hidden;rotatable=0;points=[[0,0.5],[1,0.5]];portConstraint=eastwest;whiteSpace=wrap;html=1;" vertex="1" parent="0BILyzVKihJkKOWGK6js-22">
          <mxGeometry y="286" width="180" height="26" as="geometry" />
        </mxCell>
        <mxCell id="0BILyzVKihJkKOWGK6js-34" value="&lt;font color=&quot;#ffffff&quot;&gt;Usuarios&lt;/font&gt;" style="swimlane;fontStyle=1;childLayout=stackLayout;horizontal=1;startSize=26;fillColor=#6666FF;horizontalStack=0;resizeParent=1;resizeParentMax=0;resizeLast=0;collapsible=1;marginBottom=0;whiteSpace=wrap;html=1;strokeColor=#6c8ebf;swimlaneFillColor=#D4E1F5;" vertex="1" parent="1">
          <mxGeometry x="730" y="160" width="170" height="338" as="geometry" />
        </mxCell>
        <mxCell id="0BILyzVKihJkKOWGK6js-35" value="&lt;b&gt;id (PK) : int&lt;/b&gt;" style="text;strokeColor=none;fillColor=none;align=left;verticalAlign=top;spacingLeft=4;spacingRight=4;overflow=hidden;rotatable=0;points=[[0,0.5],[1,0.5]];portConstraint=eastwest;whiteSpace=wrap;html=1;" vertex="1" parent="0BILyzVKihJkKOWGK6js-34">
          <mxGeometry y="26" width="170" height="26" as="geometry" />
        </mxCell>
        <mxCell id="0BILyzVKihJkKOWGK6js-36" value="nombre : char(50)" style="text;strokeColor=none;fillColor=none;align=left;verticalAlign=top;spacingLeft=4;spacingRight=4;overflow=hidden;rotatable=0;points=[[0,0.5],[1,0.5]];portConstraint=eastwest;whiteSpace=wrap;html=1;" vertex="1" parent="0BILyzVKihJkKOWGK6js-34">
          <mxGeometry y="52" width="170" height="26" as="geometry" />
        </mxCell>
        <mxCell id="0BILyzVKihJkKOWGK6js-37" value="telefono :&amp;nbsp;" style="text;strokeColor=none;fillColor=none;align=left;verticalAlign=top;spacingLeft=4;spacingRight=4;overflow=hidden;rotatable=0;points=[[0,0.5],[1,0.5]];portConstraint=eastwest;whiteSpace=wrap;html=1;" vertex="1" parent="0BILyzVKihJkKOWGK6js-34">
          <mxGeometry y="78" width="170" height="26" as="geometry" />
        </mxCell>
        <mxCell id="0BILyzVKihJkKOWGK6js-38" value="direccion :&amp;nbsp;" style="text;strokeColor=none;fillColor=none;align=left;verticalAlign=top;spacingLeft=4;spacingRight=4;overflow=hidden;rotatable=0;points=[[0,0.5],[1,0.5]];portConstraint=eastwest;whiteSpace=wrap;html=1;" vertex="1" parent="0BILyzVKihJkKOWGK6js-34">
          <mxGeometry y="104" width="170" height="26" as="geometry" />
        </mxCell>
        <mxCell id="0BILyzVKihJkKOWGK6js-39" value="numeroPuerta :&amp;nbsp;" style="text;strokeColor=none;fillColor=none;align=left;verticalAlign=top;spacingLeft=4;spacingRight=4;overflow=hidden;rotatable=0;points=[[0,0.5],[1,0.5]];portConstraint=eastwest;whiteSpace=wrap;html=1;" vertex="1" parent="0BILyzVKihJkKOWGK6js-34">
          <mxGeometry y="130" width="170" height="26" as="geometry" />
        </mxCell>
        <mxCell id="0BILyzVKihJkKOWGK6js-40" value="piso :&amp;nbsp;" style="text;strokeColor=none;fillColor=none;align=left;verticalAlign=top;spacingLeft=4;spacingRight=4;overflow=hidden;rotatable=0;points=[[0,0.5],[1,0.5]];portConstraint=eastwest;whiteSpace=wrap;html=1;" vertex="1" parent="0BILyzVKihJkKOWGK6js-34">
          <mxGeometry y="156" width="170" height="26" as="geometry" />
        </mxCell>
        <mxCell id="0BILyzVKihJkKOWGK6js-41" value="departamento :&amp;nbsp;" style="text;strokeColor=none;fillColor=none;align=left;verticalAlign=top;spacingLeft=4;spacingRight=4;overflow=hidden;rotatable=0;points=[[0,0.5],[1,0.5]];portConstraint=eastwest;whiteSpace=wrap;html=1;" vertex="1" parent="0BILyzVKihJkKOWGK6js-34">
          <mxGeometry y="182" width="170" height="26" as="geometry" />
        </mxCell>
        <mxCell id="0BILyzVKihJkKOWGK6js-42" value="aclaraciones :" style="text;strokeColor=none;fillColor=none;align=left;verticalAlign=top;spacingLeft=4;spacingRight=4;overflow=hidden;rotatable=0;points=[[0,0.5],[1,0.5]];portConstraint=eastwest;whiteSpace=wrap;html=1;" vertex="1" parent="0BILyzVKihJkKOWGK6js-34">
          <mxGeometry y="208" width="170" height="26" as="geometry" />
        </mxCell>
        <mxCell id="0BILyzVKihJkKOWGK6js-43" value="email :&amp;nbsp;" style="text;strokeColor=none;fillColor=none;align=left;verticalAlign=top;spacingLeft=4;spacingRight=4;overflow=hidden;rotatable=0;points=[[0,0.5],[1,0.5]];portConstraint=eastwest;whiteSpace=wrap;html=1;" vertex="1" parent="0BILyzVKihJkKOWGK6js-34">
          <mxGeometry y="234" width="170" height="26" as="geometry" />
        </mxCell>
        <mxCell id="0BILyzVKihJkKOWGK6js-44" value="contrasenia :&amp;nbsp;" style="text;strokeColor=none;fillColor=none;align=left;verticalAlign=top;spacingLeft=4;spacingRight=4;overflow=hidden;rotatable=0;points=[[0,0.5],[1,0.5]];portConstraint=eastwest;whiteSpace=wrap;html=1;" vertex="1" parent="0BILyzVKihJkKOWGK6js-34">
          <mxGeometry y="260" width="170" height="26" as="geometry" />
        </mxCell>
        <mxCell id="0BILyzVKihJkKOWGK6js-45" value="estado :&amp;nbsp;" style="text;strokeColor=none;fillColor=none;align=left;verticalAlign=top;spacingLeft=4;spacingRight=4;overflow=hidden;rotatable=0;points=[[0,0.5],[1,0.5]];portConstraint=eastwest;whiteSpace=wrap;html=1;" vertex="1" parent="0BILyzVKihJkKOWGK6js-34">
          <mxGeometry y="286" width="170" height="26" as="geometry" />
        </mxCell>
        <mxCell id="0BILyzVKihJkKOWGK6js-46" value="&lt;b&gt;membresiaId (FK) : int&lt;/b&gt;" style="text;strokeColor=none;fillColor=none;align=left;verticalAlign=top;spacingLeft=4;spacingRight=4;overflow=hidden;rotatable=0;points=[[0,0.5],[1,0.5]];portConstraint=eastwest;whiteSpace=wrap;html=1;" vertex="1" parent="0BILyzVKihJkKOWGK6js-34">
          <mxGeometry y="312" width="170" height="26" as="geometry" />
        </mxCell>
        <mxCell id="0BILyzVKihJkKOWGK6js-47" value="&lt;font color=&quot;#ffffff&quot;&gt;Membresia&lt;/font&gt;" style="swimlane;fontStyle=1;childLayout=stackLayout;horizontal=1;startSize=26;fillColor=#6666FF;horizontalStack=0;resizeParent=1;resizeParentMax=0;resizeLast=0;collapsible=1;marginBottom=0;whiteSpace=wrap;html=1;strokeColor=#6c8ebf;swimlaneFillColor=#D4E1F5;" vertex="1" parent="1">
          <mxGeometry x="1000" y="160" width="170" height="130" as="geometry" />
        </mxCell>
        <mxCell id="0BILyzVKihJkKOWGK6js-48" value="&lt;b&gt;id (PK) : int&lt;/b&gt;" style="text;strokeColor=none;fillColor=none;align=left;verticalAlign=top;spacingLeft=4;spacingRight=4;overflow=hidden;rotatable=0;points=[[0,0.5],[1,0.5]];portConstraint=eastwest;whiteSpace=wrap;html=1;" vertex="1" parent="0BILyzVKihJkKOWGK6js-47">
          <mxGeometry y="26" width="170" height="26" as="geometry" />
        </mxCell>
        <mxCell id="0BILyzVKihJkKOWGK6js-49" value="fechaAlta :&amp;nbsp;&lt;br&gt;" style="text;strokeColor=none;fillColor=none;align=left;verticalAlign=top;spacingLeft=4;spacingRight=4;overflow=hidden;rotatable=0;points=[[0,0.5],[1,0.5]];portConstraint=eastwest;whiteSpace=wrap;html=1;" vertex="1" parent="0BILyzVKihJkKOWGK6js-47">
          <mxGeometry y="52" width="170" height="26" as="geometry" />
        </mxCell>
        <mxCell id="0BILyzVKihJkKOWGK6js-50" value="fechaVencimiento :&amp;nbsp;" style="text;strokeColor=none;fillColor=none;align=left;verticalAlign=top;spacingLeft=4;spacingRight=4;overflow=hidden;rotatable=0;points=[[0,0.5],[1,0.5]];portConstraint=eastwest;whiteSpace=wrap;html=1;" vertex="1" parent="0BILyzVKihJkKOWGK6js-47">
          <mxGeometry y="78" width="170" height="26" as="geometry" />
        </mxCell>
        <mxCell id="0BILyzVKihJkKOWGK6js-51" value="renovacion :&amp;nbsp;" style="text;strokeColor=none;fillColor=none;align=left;verticalAlign=top;spacingLeft=4;spacingRight=4;overflow=hidden;rotatable=0;points=[[0,0.5],[1,0.5]];portConstraint=eastwest;whiteSpace=wrap;html=1;" vertex="1" parent="0BILyzVKihJkKOWGK6js-47">
          <mxGeometry y="104" width="170" height="26" as="geometry" />
        </mxCell>
        <mxCell id="0BILyzVKihJkKOWGK6js-52" style="edgeStyle=orthogonalEdgeStyle;rounded=0;orthogonalLoop=1;jettySize=auto;html=1;entryX=0;entryY=0.5;entryDx=0;entryDy=0;endArrow=none;endFill=0;" edge="1" parent="1" source="0BILyzVKihJkKOWGK6js-4" target="0BILyzVKihJkKOWGK6js-25">
          <mxGeometry relative="1" as="geometry" />
        </mxCell>
        <mxCell id="0BILyzVKihJkKOWGK6js-53" value="M" style="text;html=1;align=center;verticalAlign=middle;resizable=0;points=[];autosize=1;strokeColor=none;fillColor=none;" vertex="1" parent="1">
          <mxGeometry x="450" y="230" width="30" height="30" as="geometry" />
        </mxCell>
        <mxCell id="0BILyzVKihJkKOWGK6js-54" value="M" style="text;html=1;align=center;verticalAlign=middle;resizable=0;points=[];autosize=1;strokeColor=none;fillColor=none;" vertex="1" parent="1">
          <mxGeometry x="650" y="280" width="30" height="30" as="geometry" />
        </mxCell>
        <mxCell id="0BILyzVKihJkKOWGK6js-55" style="edgeStyle=orthogonalEdgeStyle;rounded=0;orthogonalLoop=1;jettySize=auto;html=1;entryX=1;entryY=0.5;entryDx=0;entryDy=0;endArrow=none;endFill=0;" edge="1" parent="1" source="0BILyzVKihJkKOWGK6js-49" target="0BILyzVKihJkKOWGK6js-36">
          <mxGeometry relative="1" as="geometry" />
        </mxCell>
        <mxCell id="0BILyzVKihJkKOWGK6js-56" value="&lt;font color=&quot;#ffffff&quot;&gt;IngredientePlato&lt;/font&gt;" style="swimlane;fontStyle=1;childLayout=stackLayout;horizontal=1;startSize=26;fillColor=#6666FF;horizontalStack=0;resizeParent=1;resizeParentMax=0;resizeLast=0;collapsible=1;marginBottom=0;whiteSpace=wrap;html=1;strokeColor=#6c8ebf;swimlaneFillColor=#D4E1F5;" vertex="1" parent="1">
          <mxGeometry x="20" y="429" width="160" height="104" as="geometry" />
        </mxCell>
        <mxCell id="0BILyzVKihJkKOWGK6js-57" value="&lt;b&gt;id (PK) : int&lt;/b&gt;" style="text;strokeColor=none;fillColor=none;align=left;verticalAlign=top;spacingLeft=4;spacingRight=4;overflow=hidden;rotatable=0;points=[[0,0.5],[1,0.5]];portConstraint=eastwest;whiteSpace=wrap;html=1;" vertex="1" parent="0BILyzVKihJkKOWGK6js-56">
          <mxGeometry y="26" width="160" height="26" as="geometry" />
        </mxCell>
        <mxCell id="0BILyzVKihJkKOWGK6js-58" value="&lt;b&gt;ingredientesId (FK) : int&lt;/b&gt;" style="text;strokeColor=none;fillColor=none;align=left;verticalAlign=top;spacingLeft=4;spacingRight=4;overflow=hidden;rotatable=0;points=[[0,0.5],[1,0.5]];portConstraint=eastwest;whiteSpace=wrap;html=1;" vertex="1" parent="0BILyzVKihJkKOWGK6js-56">
          <mxGeometry y="52" width="160" height="26" as="geometry" />
        </mxCell>
        <mxCell id="0BILyzVKihJkKOWGK6js-59" value="&lt;b&gt;platoId (FK) : int&lt;/b&gt;" style="text;strokeColor=none;fillColor=none;align=left;verticalAlign=top;spacingLeft=4;spacingRight=4;overflow=hidden;rotatable=0;points=[[0,0.5],[1,0.5]];portConstraint=eastwest;whiteSpace=wrap;html=1;" vertex="1" parent="0BILyzVKihJkKOWGK6js-56">
          <mxGeometry y="78" width="160" height="26" as="geometry" />
        </mxCell>
        <mxCell id="0BILyzVKihJkKOWGK6js-60" value="M" style="text;html=1;align=center;verticalAlign=middle;resizable=0;points=[];autosize=1;strokeColor=none;fillColor=none;" vertex="1" parent="1">
          <mxGeometry x="170" y="492" width="30" height="30" as="geometry" />
        </mxCell>
        <mxCell id="0BILyzVKihJkKOWGK6js-61" value="M" style="text;html=1;align=center;verticalAlign=middle;resizable=0;points=[];autosize=1;strokeColor=none;fillColor=none;" vertex="1" parent="1">
          <mxGeometry x="-10" y="460" width="30" height="30" as="geometry" />
        </mxCell>
        <mxCell id="0BILyzVKihJkKOWGK6js-62" style="edgeStyle=orthogonalEdgeStyle;rounded=0;orthogonalLoop=1;jettySize=auto;html=1;entryX=-0.012;entryY=-0.077;entryDx=0;entryDy=0;entryPerimeter=0;endArrow=none;endFill=0;" edge="1" parent="1" source="0BILyzVKihJkKOWGK6js-63" target="0BILyzVKihJkKOWGK6js-32">
          <mxGeometry relative="1" as="geometry">
            <mxPoint x="560" y="510" as="targetPoint" />
          </mxGeometry>
        </mxCell>
        <mxCell id="0BILyzVKihJkKOWGK6js-63" value="&lt;font color=&quot;#ffffff&quot;&gt;PlatoPedido&lt;/font&gt;" style="swimlane;fontStyle=1;childLayout=stackLayout;horizontal=1;startSize=26;fillColor=#6666FF;horizontalStack=0;resizeParent=1;resizeParentMax=0;resizeLast=0;collapsible=1;marginBottom=0;whiteSpace=wrap;html=1;strokeColor=#6c8ebf;swimlaneFillColor=#D4E1F5;" vertex="1" parent="1">
          <mxGeometry x="440" y="560" width="160" height="104" as="geometry" />
        </mxCell>
        <mxCell id="0BILyzVKihJkKOWGK6js-64" value="&lt;b&gt;id (PK) : int&lt;/b&gt;" style="text;strokeColor=none;fillColor=none;align=left;verticalAlign=top;spacingLeft=4;spacingRight=4;overflow=hidden;rotatable=0;points=[[0,0.5],[1,0.5]];portConstraint=eastwest;whiteSpace=wrap;html=1;" vertex="1" parent="0BILyzVKihJkKOWGK6js-63">
          <mxGeometry y="26" width="160" height="26" as="geometry" />
        </mxCell>
        <mxCell id="0BILyzVKihJkKOWGK6js-65" value="&lt;b&gt;pedidoId (FK) : int&lt;/b&gt;" style="text;strokeColor=none;fillColor=none;align=left;verticalAlign=top;spacingLeft=4;spacingRight=4;overflow=hidden;rotatable=0;points=[[0,0.5],[1,0.5]];portConstraint=eastwest;whiteSpace=wrap;html=1;" vertex="1" parent="0BILyzVKihJkKOWGK6js-63">
          <mxGeometry y="52" width="160" height="26" as="geometry" />
        </mxCell>
        <mxCell id="0BILyzVKihJkKOWGK6js-66" value="&lt;b&gt;platoId (FK) : int&lt;/b&gt;" style="text;strokeColor=none;fillColor=none;align=left;verticalAlign=top;spacingLeft=4;spacingRight=4;overflow=hidden;rotatable=0;points=[[0,0.5],[1,0.5]];portConstraint=eastwest;whiteSpace=wrap;html=1;" vertex="1" parent="0BILyzVKihJkKOWGK6js-63">
          <mxGeometry y="78" width="160" height="26" as="geometry" />
        </mxCell>
        <mxCell id="0BILyzVKihJkKOWGK6js-67" value="M" style="text;html=1;align=center;verticalAlign=middle;resizable=0;points=[];autosize=1;strokeColor=none;fillColor=none;" vertex="1" parent="1">
          <mxGeometry x="410" y="620" width="30" height="30" as="geometry" />
        </mxCell>
        <mxCell id="0BILyzVKihJkKOWGK6js-68" value="M" style="text;html=1;align=center;verticalAlign=middle;resizable=0;points=[];autosize=1;strokeColor=none;fillColor=none;" vertex="1" parent="1">
          <mxGeometry x="520" y="533" width="30" height="30" as="geometry" />
        </mxCell>
      </root>
    </mxGraphModel>
  </diagram>
</mxfile>
